<svg width="149" height="18" viewBox="0 0 149 18" fill="none" xmlns="http://www.w3.org/2000/svg">
<path d="M13.791 0.248229H11.0873C10.989 0.246147 10.8912 0.263985 10.7999 0.30067C10.7086 0.337355 10.6257 0.392129 10.5561 0.461696C10.4866 0.531263 10.4318 0.614184 10.3951 0.705471C10.3584 0.796758 10.3406 0.894523 10.3427 0.992883V5.34624H5.03463V0.992883C5.03671 0.894523 5.01887 0.796758 4.98219 0.705471C4.9455 0.614184 4.89073 0.531263 4.82116 0.461696C4.75159 0.392129 4.66867 0.337355 4.57739 0.30067C4.4861 0.263985 4.38833 0.246147 4.28997 0.248229H1.58631C1.48795 0.246147 1.39018 0.263985 1.2989 0.30067C1.20761 0.337355 1.12469 0.392129 1.05512 0.461696C0.985555 0.531263 0.93078 0.614184 0.894095 0.705471C0.857409 0.796758 0.839573 0.894523 0.841655 0.992883V8.7411H5.04226V8.25994H10.3503V12.7737C10.3482 12.872 10.3661 12.9698 10.4028 13.0611C10.4394 13.1524 10.4942 13.2353 10.5638 13.3049C10.6333 13.3744 10.7163 13.4292 10.8076 13.4659C10.8988 13.5026 10.9966 13.5204 11.095 13.5183H13.7986C13.897 13.5204 13.9948 13.5026 14.086 13.4659C14.1773 13.4292 14.2603 13.3744 14.3298 13.3049C14.3994 13.2353 14.4542 13.1524 14.4908 13.0611C14.5275 12.9698 14.5454 12.872 14.5433 12.7737V0.992883C14.5454 0.893863 14.5273 0.795447 14.4902 0.703637C14.453 0.611827 14.3976 0.528545 14.3272 0.458869C14.2568 0.389194 14.173 0.334584 14.0808 0.29837C13.9886 0.262155 13.89 0.245095 13.791 0.248229Z" fill="white"/>
<path d="M25.4725 13.5183C25.3741 13.5204 25.2764 13.5026 25.1851 13.4659C25.0938 13.4292 25.0109 13.3744 24.9413 13.3049C24.8718 13.2353 24.817 13.1524 24.7803 13.0611C24.7436 12.9698 24.7258 12.8721 24.7279 12.7737V8.25995C23.7121 8.25995 22.891 8.80603 22.345 9.87145L21.0542 12.3765C20.8886 12.7272 20.6246 13.0221 20.2945 13.2255C19.9643 13.4289 19.5822 13.5319 19.1945 13.5222H16.9033C16.2579 13.5222 16.109 13.0525 16.4832 12.3765L18.2933 9.05424C18.889 7.93917 19.6069 7.16779 20.8709 6.86993C20.2982 6.73778 19.7654 6.47057 19.317 6.09059C18.8686 5.7106 18.5176 5.22887 18.2933 4.68561L16.9796 1.38622C16.7085 0.71794 16.7582 0.240598 17.3997 0.240598H19.6909C20.0632 0.229589 20.4299 0.333697 20.7408 0.53872C21.0518 0.743743 21.2919 1.0397 21.4285 1.38622L22.345 3.8684C22.5109 4.36286 22.833 4.79 23.2628 5.08548C23.6926 5.38096 24.2068 5.52877 24.7279 5.50664V0.99289C24.7258 0.894529 24.7436 0.796764 24.7803 0.705478C24.817 0.614191 24.8718 0.531269 24.9413 0.461702C25.0109 0.392136 25.0938 0.337362 25.1851 0.300677C25.2764 0.263991 25.3741 0.246153 25.4725 0.248236H28.1762C28.2745 0.246153 28.3723 0.263991 28.4636 0.300677C28.5549 0.337362 28.6378 0.392136 28.7074 0.461702C28.7769 0.531269 28.8317 0.614191 28.8684 0.705478C28.9051 0.796764 28.9229 0.894529 28.9208 0.99289V5.50664C29.4419 5.52877 29.9561 5.38096 30.3859 5.08548C30.8157 4.79 31.1378 4.36286 31.3037 3.8684L32.2202 1.38622C32.3568 1.0397 32.5969 0.743743 32.9079 0.53872C33.2188 0.333697 33.5854 0.229589 33.9577 0.240598H36.249C36.8943 0.240598 36.944 0.710303 36.669 1.38622L35.3554 4.68561C35.1305 5.23093 34.7779 5.71429 34.3274 6.09506C33.8768 6.47583 33.3415 6.74287 32.7663 6.87374C34.0303 7.17161 34.752 7.93917 35.3478 9.05806L37.1578 12.3804C37.5397 13.0486 37.3831 13.526 36.7378 13.526H34.4465C34.0589 13.5358 33.6767 13.4327 33.3466 13.2293C33.0164 13.0259 32.7525 12.731 32.5868 12.3804L31.2961 9.87527C30.75 8.80984 29.9328 8.26377 28.9132 8.26377V12.7737C28.9153 12.8721 28.8974 12.9698 28.8607 13.0611C28.8241 13.1524 28.7693 13.2353 28.6997 13.3049C28.6302 13.3744 28.5472 13.4292 28.4559 13.4659C28.3647 13.5026 28.2669 13.5204 28.1685 13.5183H25.4725Z" fill="white"/>
<path d="M42.3895 8.16064C42.5614 10.1464 43.455 11.0132 45.4903 11.0132C46.5329 11.0132 47.4493 10.7154 47.8732 10.196C48.0374 9.98693 48.2483 9.81927 48.4891 9.70652C48.7298 9.59377 48.9937 9.53908 49.2594 9.54684H51.0695C51.1695 9.54463 51.2689 9.56303 51.3615 9.60088C51.4542 9.63873 51.538 9.69523 51.6078 9.76686C51.6777 9.8385 51.732 9.92373 51.7675 10.0173C51.803 10.1108 51.8189 10.2107 51.8142 10.3106C51.8142 12.8921 49.141 13.7818 45.1925 13.7818C40.778 13.7818 38.124 11.3989 38.124 6.9081C38.124 2.41726 40.8009 0 45.1772 0C49.5535 0 52.2457 2.35616 52.2457 6.72098V7.41599C52.2478 7.51435 52.2299 7.61211 52.1932 7.7034C52.1566 7.79469 52.1018 7.87761 52.0322 7.94717C51.9626 8.01674 51.8797 8.07152 51.7884 8.1082C51.6971 8.14489 51.5994 8.16272 51.501 8.16064H42.3895ZM42.3666 5.60591H47.9992C47.9229 3.74618 47.0331 2.75331 45.1963 2.75331C43.3595 2.75331 42.4621 3.74618 42.3628 5.60591H42.3666Z" fill="white"/>
<path d="M58.6841 5.34625H63.9921V0.992895C63.99 0.894534 64.0079 0.796769 64.0445 0.705483C64.0812 0.614196 64.136 0.531274 64.2056 0.461708C64.2752 0.392141 64.3581 0.337367 64.4494 0.300682C64.5406 0.263996 64.6384 0.246158 64.7368 0.248241H67.4404C67.5388 0.246158 67.6366 0.263996 67.7278 0.300682C67.8191 0.337367 67.9021 0.392141 67.9716 0.461708C68.0412 0.531274 68.096 0.614196 68.1326 0.705483C68.1693 0.796769 68.1872 0.894534 68.1851 0.992895V12.7737C68.1872 12.8721 68.1693 12.9698 68.1326 13.0611C68.096 13.1524 68.0412 13.2353 67.9716 13.3049C67.9021 13.3745 67.8191 13.4292 67.7278 13.4659C67.6366 13.5026 67.5388 13.5204 67.4404 13.5184H64.7368C64.6384 13.5204 64.5406 13.5026 64.4494 13.4659C64.3581 13.4292 64.2752 13.3745 64.2056 13.3049C64.136 13.2353 64.0812 13.1524 64.0445 13.0611C64.0079 12.9698 63.99 12.8721 63.9921 12.7737V8.25995H58.6841V12.7737C58.6861 12.8721 58.6683 12.9698 58.6316 13.0611C58.5949 13.1524 58.5402 13.2353 58.4706 13.3049C58.401 13.3745 58.3181 13.4292 58.2268 13.4659C58.1355 13.5026 58.0378 13.5204 57.9394 13.5184H55.2357C55.1374 13.5204 55.0396 13.5026 54.9483 13.4659C54.8571 13.4292 54.7741 13.3745 54.7046 13.3049C54.635 13.2353 54.5802 13.1524 54.5435 13.0611C54.5068 12.9698 54.489 12.8721 54.4911 12.7737V0.992895C54.489 0.894534 54.5068 0.796769 54.5435 0.705483C54.5802 0.614196 54.635 0.531274 54.7046 0.461708C54.7741 0.392141 54.8571 0.337367 54.9483 0.300682C55.0396 0.263996 55.1374 0.246158 55.2357 0.248241H57.9394C58.0378 0.246158 58.1355 0.263996 58.2268 0.300682C58.3181 0.337367 58.401 0.392141 58.4706 0.461708C58.5402 0.531274 58.5949 0.614196 58.6316 0.705483C58.6683 0.796769 58.6861 0.894534 58.6841 0.992895V5.34625Z" fill="white"/>
<path d="M74.6808 8.16064C74.8526 10.1464 75.7462 11.0132 77.7816 11.0132C78.8241 11.0132 79.7406 10.7154 80.1645 10.196C80.329 9.9864 80.5406 9.81842 80.7821 9.70565C81.0235 9.59288 81.2881 9.53848 81.5545 9.54684H83.3646C83.4646 9.54463 83.564 9.56303 83.6566 9.60088C83.7492 9.63873 83.8331 9.69523 83.9029 9.76686C83.9727 9.8385 84.0271 9.92373 84.0626 10.0173C84.0981 10.1108 84.114 10.2107 84.1092 10.3106C84.1092 12.8921 81.4361 13.7818 77.4875 13.7818C73.0731 13.7818 70.4191 11.3989 70.4191 6.9081C70.4191 2.41726 73.096 0 77.4837 0C81.8715 0 84.5522 2.35616 84.5522 6.72098V7.41599C84.5543 7.51435 84.5365 7.61211 84.4998 7.7034C84.4631 7.79469 84.4083 7.87761 84.3387 7.94717C84.2692 8.01674 84.1862 8.07152 84.095 8.1082C84.0037 8.14489 83.9059 8.16272 83.8076 8.16064H74.6808ZM74.654 5.60591H80.2867C80.2103 3.74618 79.3205 2.75331 77.4837 2.75331C75.6469 2.75331 74.7572 3.74618 74.6579 5.60591H74.654Z" fill="white"/>
<path d="M94.8475 1.53081e-05C93.3289 -0.00942994 91.8472 0.468397 90.6202 1.3633V0.981431C90.6208 0.882365 90.6012 0.784209 90.5627 0.69295C90.5241 0.601692 90.4674 0.519244 90.3959 0.450637C90.3245 0.382029 90.2398 0.328699 90.147 0.2939C90.0543 0.259101 89.9554 0.243563 89.8564 0.248233H87.5232C87.4267 0.249222 87.3314 0.269326 87.2428 0.307383C87.1542 0.34544 87.074 0.400693 87.0069 0.469946C86.9398 0.539198 86.8871 0.621075 86.8518 0.710837C86.8165 0.800599 86.7994 0.896465 86.8014 0.992887V16.7605C86.9656 16.7605 87.126 16.7605 87.2979 16.7605C88.5186 16.7344 89.7363 16.8914 90.9104 17.2263C90.963 17.1208 90.9905 17.0044 90.9906 16.8865V13.1479C92.113 13.5511 93.2959 13.7603 94.4886 13.7666C98.3569 13.7666 100.98 11.4333 100.98 6.86992C100.98 2.30653 98.3684 1.53081e-05 94.8475 1.53081e-05ZM93.6064 10.8414C92.7119 10.7981 91.8278 10.631 90.9791 10.345V4.01733C91.846 3.47125 92.9649 2.92517 93.8546 2.92517C95.8404 2.92517 96.6576 4.13953 96.6576 6.86992C96.6576 9.60032 95.8404 10.8414 93.6064 10.8414Z" fill="white"/>
<path d="M107.4 5.34625H112.708V0.992895C112.706 0.894862 112.723 0.797419 112.76 0.706391C112.796 0.615363 112.851 0.532619 112.92 0.463106C112.989 0.393593 113.072 0.338738 113.162 0.30182C113.253 0.264902 113.351 0.246679 113.449 0.248241H116.152C116.251 0.246158 116.348 0.263996 116.44 0.300682C116.531 0.337367 116.614 0.392141 116.683 0.461708C116.753 0.531274 116.808 0.614196 116.844 0.705483C116.881 0.796769 116.899 0.894534 116.897 0.992895V12.7737C116.899 12.8721 116.881 12.9698 116.844 13.0611C116.808 13.1524 116.753 13.2353 116.683 13.3049C116.614 13.3745 116.531 13.4292 116.44 13.4659C116.348 13.5026 116.251 13.5204 116.152 13.5184H113.449C113.35 13.5204 113.252 13.5026 113.161 13.4659C113.07 13.4292 112.987 13.3745 112.917 13.3049C112.848 13.2353 112.793 13.1524 112.756 13.0611C112.72 12.9698 112.702 12.8721 112.704 12.7737V8.25995H107.396V12.7737C107.398 12.8714 107.38 12.9685 107.344 13.0593C107.308 13.1501 107.254 13.2326 107.185 13.3021C107.116 13.3716 107.034 13.4265 106.944 13.4636C106.854 13.5008 106.757 13.5194 106.659 13.5184H103.955C103.858 13.5189 103.761 13.4999 103.671 13.4625C103.581 13.4251 103.5 13.3701 103.431 13.3007C103.363 13.2313 103.309 13.1489 103.273 13.0584C103.237 12.9679 103.22 12.8711 103.222 12.7737V0.992895C103.22 0.895833 103.237 0.799343 103.273 0.70908C103.309 0.618817 103.362 0.536598 103.43 0.467243C103.498 0.397888 103.579 0.342792 103.669 0.305186C103.758 0.267579 103.854 0.24822 103.951 0.248241H106.659C106.757 0.246158 106.855 0.263996 106.946 0.300682C107.038 0.337367 107.12 0.392141 107.19 0.461708C107.26 0.531274 107.314 0.614196 107.351 0.705483C107.388 0.796769 107.406 0.894534 107.404 0.992895L107.4 5.34625Z" fill="white"/>
<path d="M124.042 3.57054C123.875 3.77667 123.663 3.941 123.421 4.0504C123.18 4.15981 122.917 4.21125 122.652 4.20063H120.842C120.743 4.20271 120.646 4.18487 120.554 4.14819C120.463 4.1115 120.38 4.05673 120.31 3.98716C120.241 3.91759 120.186 3.83467 120.149 3.74339C120.113 3.6521 120.095 3.55433 120.097 3.45597C120.097 0.874507 122.675 -0.0152588 126.696 -0.0152588C130.266 -0.0152588 133.069 1.47405 133.069 5.26987V12.7737C133.071 12.8721 133.054 12.9698 133.017 13.0611C132.98 13.1524 132.925 13.2353 132.856 13.3049C132.786 13.3744 132.703 13.4292 132.612 13.4659C132.521 13.5026 132.423 13.5204 132.325 13.5183H129.991C129.893 13.5204 129.795 13.5026 129.704 13.4659C129.613 13.4292 129.53 13.3744 129.46 13.3049C129.391 13.2353 129.336 13.1524 129.299 13.0611C129.262 12.9698 129.245 12.8721 129.247 12.7737V12.3918C127.97 13.3121 126.428 13.7908 124.855 13.7551C121.605 13.7551 119.127 12.2925 119.127 9.48958C119.127 6.68663 121.609 5.28897 124.855 5.28897H128.872C128.872 3.35287 128.055 2.75714 126.39 2.75714C125.371 2.75333 124.462 3.05501 124.042 3.57054ZM128.88 9.92873V8.01936H125.161C123.996 8.01936 123.324 8.66473 123.324 9.48194C123.324 10.2992 123.992 11.0094 125.283 11.0094C126.56 10.9946 127.807 10.6201 128.88 9.92873Z" fill="white"/>
<path d="M142.173 8.78313L140.115 12.4529C139.931 12.7889 139.657 13.0668 139.324 13.2551C138.99 13.4434 138.611 13.5346 138.228 13.5184H136.063C135.467 13.5184 135.269 13.0219 135.616 12.4529L138.03 8.40125C136.392 7.78262 135.448 6.69046 135.448 4.53287C135.448 1.33277 137.656 0.267345 140.856 0.267345H148.001C148.099 0.265262 148.197 0.2831 148.288 0.319786C148.379 0.356471 148.462 0.411245 148.532 0.480812C148.601 0.550378 148.656 0.6333 148.693 0.724587C148.729 0.815873 148.747 0.913638 148.745 1.012V12.7737C148.747 12.8721 148.729 12.9698 148.693 13.0611C148.656 13.1524 148.601 13.2353 148.532 13.3049C148.462 13.3745 148.379 13.4292 148.288 13.4659C148.197 13.5026 148.099 13.5204 148.001 13.5184H145.297C145.198 13.5204 145.101 13.5026 145.009 13.4659C144.918 13.4292 144.835 13.3745 144.766 13.3049C144.696 13.2353 144.641 13.1524 144.605 13.0611C144.568 12.9698 144.55 12.8721 144.552 12.7737V8.78313H142.173ZM144.556 6.02982V3.00156H141.234C140.241 3.00156 139.645 3.59728 139.645 4.52906C139.645 5.46083 140.241 6.05655 141.234 6.05655L144.556 6.02982Z" fill="white"/>
</svg>
