<svg width="25" height="21" viewBox="0 0 25 21" fill="none" xmlns="http://www.w3.org/2000/svg">
<path d="M22.8719 0.504842H15.1428C10.9842 0.504842 6.97453 1.55881 5.85946 6.12602L3.19398 16.9674H2.08273C1.72955 16.9644 1.38952 17.1012 1.13694 17.3481C0.884352 17.5949 0.739743 17.9317 0.734711 18.2849V19.6405C0.738681 19.9968 0.881979 20.3374 1.13393 20.5893C1.38587 20.8413 1.72644 20.9846 2.08273 20.9886H22.8719C23.2251 20.9916 23.5651 20.8548 23.8177 20.6079C24.0703 20.361 24.2149 20.0242 24.2199 19.6711V1.82231C24.2149 1.46916 24.0703 1.13235 23.8177 0.885491C23.5651 0.638629 23.2251 0.501778 22.8719 0.504842ZM18.8317 16.9674H8.7006L11.1026 7.36329C11.5112 5.63722 12.7408 4.5527 14.5394 4.5527H18.8164L18.8317 16.9674Z" fill="#FEE040"/>
</svg>
