<svg width="139" height="13" viewBox="0 0 139 13" fill="none" xmlns="http://www.w3.org/2000/svg">
<path d="M8.14053 1.51708C8.26638 1.29449 8.44508 1.10631 8.66086 0.969114C8.87663 0.831923 9.12286 0.749946 9.37781 0.730417H12.4633C12.5525 0.728865 12.6411 0.745289 12.7238 0.778707C12.8065 0.812126 12.8817 0.861855 12.9447 0.924931C13.0078 0.988008 13.0576 1.06314 13.091 1.14585C13.1244 1.22855 13.1408 1.31714 13.1393 1.40633V12.0988C13.1424 12.1889 13.1271 12.2788 13.0944 12.3628C13.0617 12.4469 13.0122 12.5234 12.949 12.5877C12.8857 12.652 12.8101 12.7028 12.7266 12.7369C12.6431 12.771 12.5535 12.7878 12.4633 12.7862H10.1721C10.0829 12.7877 9.99433 12.7713 9.91162 12.7379C9.82891 12.7045 9.75378 12.6547 9.6907 12.5917C9.62763 12.5286 9.57789 12.4534 9.54448 12.3707C9.51106 12.288 9.49464 12.1994 9.49619 12.1103V4.89666L5.62017 11.9881C5.49193 12.2096 5.31287 12.3975 5.09775 12.5363C4.88263 12.675 4.63762 12.7607 4.3829 12.7862H1.29736C1.20817 12.7877 1.11958 12.7713 1.03687 12.7379C0.954162 12.7045 0.879029 12.6547 0.815953 12.5917C0.752877 12.5286 0.703151 12.4534 0.669732 12.3707C0.636313 12.288 0.619887 12.1994 0.621438 12.1103V1.41779C0.619887 1.3286 0.636313 1.24001 0.669732 1.1573C0.703151 1.0746 0.752877 0.999465 0.815953 0.936388C0.879029 0.873312 0.954162 0.823582 1.03687 0.790163C1.11958 0.756744 1.20817 0.740321 1.29736 0.741872H3.5886C3.67779 0.740321 3.76638 0.756744 3.84909 0.790163C3.93179 0.823582 4.00693 0.873312 4.07 0.936388C4.13308 0.999465 4.18281 1.0746 4.21622 1.1573C4.24964 1.24001 4.26607 1.3286 4.26452 1.41779V8.6352L8.14053 1.51708Z" fill="#FEE040"/>
<path d="M19.6235 3.7472C19.4746 3.93726 19.2827 4.0893 19.0636 4.19087C18.8446 4.29243 18.6046 4.34061 18.3633 4.33147H16.7212C16.632 4.33302 16.5435 4.3166 16.4607 4.28318C16.378 4.24976 16.3029 4.20003 16.2398 4.13695C16.1768 4.07388 16.127 3.99875 16.0936 3.91604C16.0602 3.83333 16.0438 3.74474 16.0453 3.65555C16.0453 1.31467 18.3862 0.505096 22.0331 0.505096C25.2752 0.505096 27.8185 1.85693 27.8185 5.30143V12.1026C27.821 12.1911 27.8059 12.2793 27.7738 12.3619C27.7418 12.4444 27.6936 12.5198 27.6321 12.5835C27.5705 12.6472 27.4969 12.6979 27.4154 12.7327C27.334 12.7675 27.2464 12.7857 27.1578 12.7862H25.0423C24.9531 12.7877 24.8645 12.7713 24.7818 12.7379C24.6991 12.7044 24.6239 12.6547 24.5609 12.5916C24.4978 12.5286 24.4481 12.4534 24.4146 12.3707C24.3812 12.288 24.3648 12.1994 24.3663 12.1102V11.7742C23.2076 12.6097 21.8078 13.0441 20.3796 13.0115C17.4315 13.0115 15.1785 11.6825 15.1785 9.13926C15.1785 6.59598 17.4315 5.32052 20.3796 5.32052H24.0265C24.0265 3.5639 23.2818 3.02928 21.7734 3.02928C20.8378 3.00255 20.0053 3.27368 19.6235 3.7472ZM24.015 9.50968V7.79888H20.6393C19.5815 7.79888 18.9743 8.38315 18.9743 9.1278C18.9743 9.87246 19.5815 10.5025 20.7538 10.5025C21.9126 10.4848 23.0429 10.1407 24.015 9.50968Z" fill="#FEE040"/>
<path d="M34.3256 3.38825V12.1026C34.3282 12.1924 34.3126 12.2818 34.2796 12.3654C34.2467 12.449 34.1971 12.5251 34.1339 12.589C34.0707 12.6529 33.9953 12.7033 33.912 12.7372C33.8288 12.7711 33.7396 12.7877 33.6497 12.7862H31.1943C31.1051 12.7877 31.0165 12.7713 30.9338 12.7379C30.8511 12.7044 30.7759 12.6547 30.7129 12.5916C30.6498 12.5286 30.6001 12.4534 30.5666 12.3707C30.5332 12.288 30.5168 12.1994 30.5184 12.1102V1.41778C30.5168 1.32859 30.5332 1.24 30.5666 1.15729C30.6001 1.07458 30.6498 0.999453 30.7129 0.936377C30.7759 0.8733 30.8511 0.82357 30.9338 0.790151C31.0165 0.756733 31.1051 0.740309 31.1943 0.741861H39.4122C39.5014 0.740309 39.59 0.756733 39.6727 0.790151C39.7554 0.82357 39.8305 0.8733 39.8936 0.936377C39.9567 0.999453 40.0064 1.07458 40.0398 1.15729C40.0732 1.24 40.0897 1.32859 40.0881 1.41778V2.72379C40.0897 2.81298 40.0732 2.90156 40.0398 2.98427C40.0064 3.06698 39.9567 3.14211 39.8936 3.20519C39.8305 3.26826 39.7554 3.31799 39.6727 3.35141C39.59 3.38483 39.5014 3.40125 39.4122 3.3997L34.3256 3.38825Z" fill="#FEE040"/>
<path d="M45.4878 5.34727H50.307V1.40633C50.3055 1.31714 50.3219 1.22855 50.3553 1.14585C50.3887 1.06314 50.4385 0.988008 50.5015 0.924931C50.5646 0.861855 50.6398 0.812126 50.7225 0.778707C50.8052 0.745289 50.8938 0.728865 50.9829 0.730417H53.4384C53.5276 0.728865 53.6162 0.745289 53.6989 0.778707C53.7816 0.812126 53.8567 0.861855 53.9198 0.924931C53.9829 0.988008 54.0326 1.06314 54.066 1.14585C54.0994 1.22855 54.1159 1.31714 54.1143 1.40633V12.0988C54.1176 12.1906 54.1018 12.2821 54.0679 12.3675C54.034 12.4528 53.9828 12.5303 53.9175 12.5949C53.8522 12.6595 53.7742 12.7098 53.6884 12.7427C53.6027 12.7757 53.511 12.7905 53.4193 12.7862H50.9638C50.8747 12.7877 50.7861 12.7713 50.7034 12.7379C50.6207 12.7045 50.5455 12.6547 50.4824 12.5917C50.4194 12.5286 50.3696 12.4535 50.3362 12.3707C50.3028 12.288 50.2864 12.1994 50.2879 12.1103V8.0013H45.4878V12.1026C45.4905 12.1941 45.4743 12.2852 45.4402 12.3701C45.4061 12.455 45.3548 12.532 45.2895 12.5962C45.2243 12.6603 45.1465 12.7103 45.061 12.743C44.9755 12.7757 44.8842 12.7904 44.7928 12.7862H42.3373C42.2481 12.7867 42.1597 12.7693 42.0774 12.735C41.995 12.7006 41.9205 12.65 41.8581 12.5862C41.7957 12.5224 41.7469 12.4467 41.7144 12.3637C41.6819 12.2806 41.6665 12.1918 41.669 12.1026V1.41015C41.6675 1.32096 41.6839 1.23237 41.7173 1.14967C41.7507 1.06696 41.8005 0.991827 41.8636 0.928751C41.9266 0.865674 42.0018 0.815944 42.0845 0.782525C42.1672 0.749107 42.2558 0.732683 42.3449 0.734235H44.8004C44.8902 0.731129 44.9797 0.746276 45.0635 0.778757C45.1473 0.811238 45.2236 0.860377 45.2879 0.923205C45.3522 0.986033 45.403 1.06124 45.4373 1.14428C45.4717 1.22732 45.4889 1.31647 45.4878 1.40633V5.34727Z" fill="#FEE040"/>
<path d="M69.4045 6.74109C69.4045 10.8844 67.0178 13 62.7637 13C58.5097 13 56.1191 10.8768 56.1191 6.74109C56.1191 2.6054 58.5059 0.505096 62.7599 0.505096C67.014 0.505096 69.4045 2.59776 69.4045 6.74109ZM65.5858 6.74109C65.5858 4.06798 64.6617 3.00255 62.7485 3.00255C60.8353 3.00255 59.9111 4.08325 59.9111 6.74109C59.9111 9.39893 60.8467 10.4949 62.7599 10.4949C64.6731 10.4949 65.5973 9.39893 65.5973 6.74109H65.5858Z" fill="#FEE040"/>
<path d="M74.6706 6.76401C74.6706 9.24237 75.4153 10.346 77.6645 10.346C78.8101 10.346 79.6464 9.91829 80.0283 9.31111C80.1459 9.07511 80.325 8.87527 80.5469 8.73276C80.7687 8.59025 81.025 8.51036 81.2885 8.50154H82.9305C83.0197 8.49998 83.1083 8.51641 83.191 8.54983C83.2737 8.58324 83.3489 8.63297 83.4119 8.69605C83.475 8.75913 83.5247 8.83426 83.5582 8.91697C83.5916 8.99967 83.608 9.08826 83.6065 9.17745C83.6065 11.7436 81.2656 12.9962 77.3934 12.9962C73.1164 12.9962 70.7526 10.8806 70.7526 6.76019C70.7526 2.63977 73.1393 0.501282 77.2826 0.501282C81.1548 0.501282 83.4957 1.76147 83.4957 4.32002C83.4973 4.40921 83.4808 4.4978 83.4474 4.5805C83.414 4.66321 83.3643 4.73834 83.3012 4.80142C83.2381 4.8645 83.163 4.91423 83.0803 4.94765C82.9976 4.98106 82.909 4.99749 82.8198 4.99593H81.1777C80.9142 4.98711 80.658 4.90722 80.4361 4.76471C80.2143 4.62219 80.0351 4.42236 79.9175 4.18636C79.5357 3.57918 78.7032 3.15148 77.5537 3.15148C75.4152 3.16294 74.6706 4.26656 74.6706 6.76401Z" fill="#FEE040"/>
<path d="M95.7882 0.730417C95.8774 0.728865 95.966 0.745289 96.0487 0.778707C96.1314 0.812126 96.2065 0.861855 96.2696 0.924931C96.3327 0.988008 96.3824 1.06314 96.4158 1.14585C96.4493 1.22855 96.4657 1.31714 96.4641 1.40633V2.71234C96.4657 2.80153 96.4493 2.89012 96.4158 2.97283C96.3824 3.05553 96.3327 3.13067 96.2696 3.19374C96.2065 3.25682 96.1314 3.30655 96.0487 3.33997C95.966 3.37339 95.8774 3.38981 95.7882 3.38826H92.275V12.1026C92.2775 12.1921 92.262 12.2812 92.2293 12.3646C92.1966 12.4479 92.1474 12.5238 92.0846 12.5876C92.0218 12.6515 91.9468 12.702 91.864 12.7361C91.7812 12.7702 91.6924 12.7872 91.6029 12.7862H89.1474C89.0582 12.7877 88.9697 12.7713 88.8869 12.7379C88.8042 12.7045 88.7291 12.6547 88.666 12.5917C88.6029 12.5286 88.5532 12.4534 88.5198 12.3707C88.4864 12.288 88.47 12.1994 88.4715 12.1103V3.38826H84.9583C84.8691 3.38981 84.7805 3.37339 84.6978 3.33997C84.6151 3.30655 84.5399 3.25682 84.4769 3.19374C84.4138 3.13067 84.3641 3.05553 84.3307 2.97283C84.2972 2.89012 84.2808 2.80153 84.2824 2.71234V1.40633C84.2808 1.31714 84.2972 1.22855 84.3307 1.14585C84.3641 1.06314 84.4138 0.988008 84.4769 0.924931C84.5399 0.861855 84.6151 0.812126 84.6978 0.778707C84.7805 0.745289 84.8691 0.728865 84.9583 0.730417H95.7882Z" fill="#FEE040"/>
<path d="M105.56 1.51708C105.686 1.29449 105.865 1.10631 106.081 0.969114C106.296 0.831923 106.543 0.749946 106.798 0.730417H109.883C109.972 0.728865 110.061 0.745289 110.144 0.778707C110.226 0.812126 110.301 0.861855 110.365 0.924931C110.428 0.988008 110.477 1.06314 110.511 1.14585C110.544 1.22855 110.561 1.31714 110.559 1.40633V12.0988C110.562 12.1889 110.547 12.2788 110.514 12.3628C110.482 12.4469 110.432 12.5234 110.369 12.5877C110.306 12.652 110.23 12.7028 110.146 12.7369C110.063 12.771 109.973 12.7878 109.883 12.7862H107.592C107.503 12.7877 107.414 12.7713 107.331 12.7379C107.249 12.7045 107.174 12.6547 107.111 12.5917C107.047 12.5286 106.998 12.4534 106.964 12.3707C106.931 12.288 106.914 12.1994 106.916 12.1103V4.89666L103.04 11.9881C102.911 12.2101 102.732 12.3983 102.516 12.5371C102.3 12.6759 102.054 12.7613 101.799 12.7862H98.7133C98.6242 12.7877 98.5356 12.7713 98.4529 12.7379C98.3702 12.7045 98.295 12.6547 98.2319 12.5917C98.1689 12.5286 98.1191 12.4534 98.0857 12.3707C98.0523 12.288 98.0359 12.1994 98.0374 12.1103V1.41779C98.0359 1.3286 98.0523 1.24001 98.0857 1.1573C98.1191 1.0746 98.1689 0.999465 98.2319 0.936388C98.295 0.873312 98.3702 0.823582 98.4529 0.790163C98.5356 0.756744 98.6242 0.740321 98.7133 0.741872H101.005C101.094 0.740321 101.182 0.756744 101.265 0.790163C101.348 0.823582 101.423 0.873312 101.486 0.936388C101.549 0.999465 101.599 1.0746 101.632 1.1573C101.666 1.24001 101.682 1.3286 101.681 1.41779V8.6352L105.56 1.51708Z" fill="#FEE040"/>
<path d="M123.348 4.76681C123.129 5.25019 122.806 5.67883 122.401 6.02163C121.996 6.36444 121.52 6.61281 121.007 6.74874C121.931 7.01987 122.672 7.64996 123.348 8.73066L125.215 11.7475C125.574 12.3317 125.418 12.7823 124.834 12.7823H122.764C122.417 12.7681 122.081 12.6656 121.785 12.4844C121.49 12.3033 121.246 12.0496 121.076 11.7475L119.678 9.45622C119.408 9.0057 119.025 8.63366 118.567 8.37708C118.109 8.12049 117.591 7.9883 117.066 7.99365V12.1026C117.069 12.1924 117.053 12.2818 117.02 12.3655C116.987 12.4491 116.938 12.5251 116.874 12.589C116.811 12.6529 116.736 12.7033 116.653 12.7372C116.569 12.7711 116.48 12.7878 116.39 12.7862H113.935C113.846 12.7877 113.757 12.7713 113.674 12.7379C113.592 12.7045 113.517 12.6547 113.453 12.5916C113.39 12.5286 113.341 12.4534 113.307 12.3707C113.274 12.288 113.257 12.1994 113.259 12.1102V1.41778C113.257 1.32859 113.274 1.24 113.307 1.15729C113.341 1.07459 113.39 0.999456 113.453 0.93638C113.517 0.873303 113.592 0.823573 113.674 0.790154C113.757 0.756735 113.846 0.740312 113.935 0.741863H116.39C116.479 0.740312 116.568 0.756735 116.651 0.790154C116.733 0.823573 116.809 0.873303 116.872 0.93638C116.935 0.999456 116.984 1.07459 117.018 1.15729C117.051 1.24 117.068 1.32859 117.066 1.41778V5.50383C118.372 5.50383 119.228 4.96539 119.678 4.01834L120.736 1.76529C120.875 1.46177 121.096 1.20361 121.375 1.02053C121.654 0.837444 121.979 0.736878 122.313 0.730408H124.383C124.967 0.730408 125.036 1.18102 124.765 1.76529L123.348 4.76681Z" fill="#FEE040"/>
<path d="M130.55 3.7472C130.401 3.93726 130.209 4.0893 129.99 4.19087C129.771 4.29243 129.531 4.34061 129.29 4.33147H127.648C127.559 4.33302 127.47 4.3166 127.387 4.28318C127.305 4.24976 127.23 4.20003 127.167 4.13695C127.103 4.07388 127.054 3.99875 127.02 3.91604C126.987 3.83333 126.97 3.74474 126.972 3.65555C126.972 1.31467 129.313 0.505096 132.96 0.505096C136.202 0.505096 138.745 1.85693 138.745 5.30143V12.1026C138.748 12.1924 138.732 12.2818 138.699 12.3654C138.666 12.449 138.617 12.5251 138.553 12.589C138.49 12.6529 138.415 12.7033 138.332 12.7372C138.248 12.7711 138.159 12.7877 138.069 12.7862H135.954C135.864 12.7877 135.776 12.7713 135.693 12.7379C135.61 12.7044 135.535 12.6547 135.472 12.5916C135.409 12.5286 135.359 12.4534 135.326 12.3707C135.293 12.288 135.276 12.1994 135.278 12.1102V11.7742C134.119 12.6097 132.719 13.0441 131.291 13.0115C128.343 13.0115 126.09 11.6825 126.09 9.13926C126.09 6.59598 128.343 5.32052 131.291 5.32052H134.938C134.938 3.5639 134.197 3.02928 132.685 3.02928C131.765 3.00255 130.932 3.27368 130.55 3.7472ZM134.942 9.50968V7.79888H131.562C130.504 7.79888 129.897 8.38315 129.897 9.1278C129.897 9.87246 130.504 10.5025 131.677 10.5025C132.837 10.4855 133.969 10.1413 134.942 9.50968Z" fill="#FEE040"/>
</svg>
