<svg width="48" height="30" xmlns="http://www.w3.org/2000/svg">

 <g>
  <title>background</title>
  <rect fill="none" id="canvas_background" height="402" width="582" y="-1" x="-1"/>
 </g>
 <g>
  <title>Layer 1</title>
  <path id="svg_1" fill="white" d="m47.3523,1.47785c-0.1023,-0.4176 -0.3406,-0.78935 -0.6772,-1.05685c-0.3366,-0.2675 -0.7526,-0.41559 -1.1825,-0.421l-6.2436,0c-1.0273,0 -2.2722,0.94323 -2.8717,1.97047l-11.8381,20.78923l0,-20.83124c-0.0054,-0.45694 -0.1713,-0.89742 -0.4687,-1.24438c-0.2974,-0.34696 -0.7073,-0.5783 -1.1581,-0.65353l-0.3475,-0.03055l-13.78181,0c-0.19966,0.0139 -0.38661,0.10302 -0.52313,0.24938c-0.13652,0.14635 -0.21244,0.33905 -0.21244,0.53919c0,0.20014 0.07592,0.39283 0.21244,0.53919c0.13652,0.14635 0.32347,0.23548 0.52313,0.24938l8.40121,0c0.1082,-0.00753 0.2167,0.00727 0.319,0.04349c0.1022,0.03622 0.1958,0.09307 0.2751,0.16704c0.0793,0.07396 0.1425,0.16345 0.1858,0.26289c0.0432,0.09944 0.0655,0.20672 0.0655,0.31515c0,0.10843 -0.0223,0.2157 -0.0655,0.31515c-0.0433,0.09944 -0.1065,0.18893 -0.1858,0.26289c-0.0793,0.07396 -0.1729,0.13082 -0.2751,0.16704c-0.1023,0.03622 -0.2108,0.05102 -0.319,0.04349l-4.0364,0c-0.1997,0.0139 -0.3866,0.10302 -0.5231,0.24938c-0.1365,0.14635 -0.2125,0.33904 -0.2125,0.53919c0,0.20014 0.076,0.39283 0.2125,0.53919c0.1365,0.14635 0.3234,0.23547 0.5231,0.24938l7.8972,0c0.1996,0.0139 0.3866,0.10302 0.5231,0.24937c0.1365,0.14636 0.2124,0.33905 0.2124,0.5392c0,0.20014 -0.0759,0.39283 -0.2124,0.53919c-0.1365,0.14635 -0.3235,0.23547 -0.5231,0.24937l-13.04867,0c-0.19966,0.01391 -0.38661,0.10303 -0.52313,0.24938c-0.13652,0.14636 -0.21244,0.33905 -0.21244,0.53919c0,0.20015 0.07592,0.39284 0.21244,0.53919c0.13652,0.14636 0.32347,0.23548 0.52313,0.24938l8.21787,0c0.1082,-0.00753 0.2168,0.00727 0.319,0.04349c0.1022,0.03622 0.1959,0.09308 0.2752,0.16704c0.0792,0.07397 0.1425,0.16345 0.1857,0.26289c0.0432,0.09945 0.0655,0.20672 0.0655,0.31515c0,0.10844 -0.0223,0.21571 -0.0655,0.31515c-0.0432,0.09944 -0.1065,0.18893 -0.1857,0.26289c-0.0793,0.07397 -0.173,0.13082 -0.2752,0.16704c-0.1022,0.03622 -0.2108,0.05102 -0.319,0.04349l-9.87138,0c-0.10818,-0.00753 -0.21674,0.00727 -0.31895,0.04349c-0.1022,0.03622 -0.19586,0.09308 -0.27515,0.16704c-0.0793,0.07396 -0.14252,0.16345 -0.18575,0.26289c-0.04323,0.09945 -0.06554,0.20675 -0.06554,0.31515c0,0.1084 0.02231,0.2157 0.06554,0.3152c0.04323,0.0994 0.10645,0.1889 0.18575,0.2628c0.07929,0.074 0.17295,0.1309 0.27515,0.1671c0.10221,0.0362 0.21077,0.051 0.31895,0.0435l12.81188,0c0.1996,0.0139 0.3866,0.103 0.5231,0.2493c0.1365,0.1464 0.2124,0.3391 0.2124,0.5392c0,0.2002 -0.0759,0.3929 -0.2124,0.5392c-0.1365,0.1464 -0.3235,0.2355 -0.5231,0.2494l-17.12706,0c-0.19966,0.0139 -0.38661,0.103 -0.52313,0.2494c-0.13652,0.1463 -0.21244,0.339 -0.21244,0.5392c0,0.2001 0.07592,0.3928 0.21244,0.5392c0.13652,0.1463 0.32347,0.2354 0.52313,0.2493l14.95036,0c0.2096,0 0.4107,0.0833 0.559,0.2316c0.1482,0.1482 0.2315,0.3493 0.2315,0.5589c0,0.2097 -0.0833,0.4107 -0.2315,0.559c-0.1483,0.1482 -0.3494,0.2315 -0.559,0.2315l-13.0219,0c-0.10817,-0.0075 -0.21673,0.0073 -0.31894,0.0435c-0.1022,0.0362 -0.19586,0.0931 -0.27516,0.167c-0.07929,0.074 -0.14251,0.1635 -0.18574,0.2629c-0.04323,0.0995 -0.06554,0.2067 -0.06554,0.3152c0,0.1084 0.02231,0.2157 0.06554,0.3151c0.04323,0.0995 0.10645,0.189 0.18574,0.2629c0.0793,0.074 0.17296,0.1308 0.27516,0.1671c0.10221,0.0362 0.21077,0.051 0.31894,0.0434l10.8147,0c0.1081,-0.0075 0.2167,0.0073 0.3189,0.0435c0.1022,0.0363 0.1959,0.0931 0.2752,0.1671c0.0793,0.0739 0.1425,0.1634 0.1857,0.2629c0.0432,0.0994 0.0656,0.2067 0.0656,0.3151c0,0.1084 -0.0224,0.2157 -0.0656,0.3152c-0.0432,0.0994 -0.1064,0.1889 -0.1857,0.2629c-0.0793,0.0739 -0.173,0.1308 -0.2752,0.167c-0.1022,0.0362 -0.2108,0.051 -0.3189,0.0435l-13.98043,0c-0.19966,0.0139 -0.38661,0.103 -0.52313,0.2494c-0.13652,0.1463 -0.21244,0.339 -0.21244,0.5392c0,0.2001 0.07592,0.3928 0.21244,0.5391c0.13652,0.1464 0.32347,0.2355 0.52313,0.2494l19.06693,0c0.1082,-0.0075 0.2168,0.0073 0.319,0.0435c0.1022,0.0362 0.1958,0.0931 0.2751,0.167c0.0793,0.074 0.1425,0.1635 0.1858,0.2629c0.0432,0.0995 0.0655,0.2068 0.0655,0.3152c0,0.1084 -0.0223,0.2157 -0.0655,0.3151c-0.0433,0.0995 -0.1065,0.189 -0.1858,0.2629c-0.0793,0.074 -0.1729,0.1309 -0.2751,0.1671c-0.1022,0.0362 -0.2108,0.051 -0.319,0.0435l-12.25812,0c-0.19966,0.0139 -0.38661,0.103 -0.52313,0.2493c-0.13652,0.1464 -0.21244,0.3391 -0.21244,0.5392c0,0.2002 0.07592,0.3929 0.21244,0.5392c0.13652,0.1464 0.32347,0.2355 0.52313,0.2494l10.34882,0c0.1081,-0.0075 0.2167,0.0073 0.3189,0.0435c0.1022,0.0362 0.1959,0.0931 0.2752,0.167c0.0792,0.074 0.1425,0.1635 0.1857,0.2629c0.0432,0.0995 0.0655,0.2067 0.0655,0.3152c0,0.1084 -0.0223,0.2157 -0.0655,0.3151c-0.0432,0.0995 -0.1065,0.1889 -0.1857,0.2629c-0.0793,0.074 -0.173,0.1308 -0.2752,0.167c-0.1022,0.0363 -0.2108,0.0511 -0.3189,0.0435l-12.85773,0c-0.19966,0.0139 -0.38661,0.1031 -0.52313,0.2494c-0.13652,0.1464 -0.21244,0.3391 -0.21244,0.5392c0,0.2001 0.07592,0.3928 0.21244,0.5392c0.13652,0.1464 0.32347,0.2355 0.52313,0.2494l9.78363,0c0.1081,-0.0076 0.2167,0.0072 0.3189,0.0435c0.1022,0.0362 0.1959,0.093 0.2752,0.167c0.0793,0.074 0.1425,0.1635 0.1857,0.2629c0.0433,0.0994 0.0656,0.2067 0.0656,0.3151c0,0.1085 -0.0223,0.2158 -0.0656,0.3152c-0.0432,0.0994 -0.1064,0.1889 -0.1857,0.2629c-0.0793,0.0739 -0.173,0.1308 -0.2752,0.167c-0.1022,0.0362 -0.2108,0.051 -0.3189,0.0435l-10.46337,0c-0.10817,-0.0075 -0.21673,0.0073 -0.31894,0.0435c-0.1022,0.0362 -0.19586,0.0931 -0.27516,0.167c-0.07929,0.074 -0.14251,0.1635 -0.18574,0.2629c-0.04323,0.0995 -0.06554,0.2068 -0.06554,0.3152c0,0.1084 0.02231,0.2157 0.06554,0.3151c0.04323,0.0995 0.10645,0.189 0.18574,0.2629c0.0793,0.074 0.17296,0.1308 0.27516,0.1671c0.10221,0.0362 0.21077,0.051 0.31894,0.0435l21.41167,0c1.1151,0 2.444,-0.9013 3.055,-1.9705l10.9292,-19.41448l0,2.99768c0.7466,-0.8345 1.674,-1.4876 2.7113,-1.90934c1.543,-0.59416 3.1811,-0.9034 4.8345,-0.91268l0,-6.78971c-0.0007,-0.14922 -0.0186,-0.29786 -0.0534,-0.44297l0.0534,-0.04965zm-28.4343,7.9888c-0.1563,0 -0.3092,-0.04636 -0.4392,-0.13322c-0.1299,-0.08686 -0.2313,-0.21031 -0.2911,-0.35476c-0.0598,-0.14444 -0.0755,-0.30338 -0.045,-0.45671c0.0305,-0.15334 0.1058,-0.29419 0.2164,-0.40474c0.1105,-0.11055 0.2514,-0.18584 0.4047,-0.21634c0.1533,-0.0305 0.3123,-0.01484 0.4567,0.04498c0.1445,0.05983 0.2679,0.16115 0.3548,0.29115c0.0868,0.12999 0.1332,0.28282 0.1332,0.43916c0,0.20965 -0.0833,0.41071 -0.2315,0.55895c-0.1483,0.14825 -0.3493,0.23153 -0.559,0.23153zm0.2177,9.48575c-0.1564,0 -0.3092,-0.0464 -0.4392,-0.1332c-0.13,-0.0869 -0.2313,-0.2103 -0.2911,-0.3548c-0.0599,-0.1444 -0.0755,-0.3034 -0.045,-0.4567c0.0305,-0.1533 0.1058,-0.2942 0.2163,-0.4047c0.1106,-0.1106 0.2514,-0.1859 0.4048,-0.2164c0.1533,-0.0305 0.3122,-0.0148 0.4567,0.045c0.1444,0.0598 0.2679,0.1612 0.3547,0.2911c0.0869,0.13 0.1333,0.2829 0.1333,0.4392c0,0.2097 -0.0833,0.4107 -0.2316,0.559c-0.1482,0.1482 -0.3493,0.2315 -0.5589,0.2315zm-1.5695,9.4666c-0.1574,0.0054 -0.3128,-0.0364 -0.4462,-0.12c-0.1335,-0.0835 -0.239,-0.2051 -0.3029,-0.3489c-0.0639,-0.1439 -0.0835,-0.3036 -0.0561,-0.4587c0.0275,-0.1551 0.1006,-0.2984 0.21,-0.4116c0.1094,-0.1133 0.2501,-0.1913 0.4041,-0.224c0.1541,-0.0327 0.3143,-0.0187 0.4604,0.0403c0.146,0.0589 0.271,0.1601 0.3591,0.2907c0.0881,0.1305 0.1352,0.2843 0.1353,0.4418c0.0001,0.2051 -0.0795,0.4022 -0.222,0.5497c-0.1425,0.1475 -0.3367,0.2338 -0.5417,0.2407z"/>
  <rect id="svg_5" height="20.553358" width="6.225296" y="8.779645" x="40.452566" stroke-width="1.5" stroke="#ffffff" fill="#ffffff"/>
 </g>
</svg>