<svg width="828" height="58" viewBox="0 0 828 58" fill="none" xmlns="http://www.w3.org/2000/svg">
<path d="M19.3244 40.76L25.3244 0.999996H37.5644V57H29.2444V16.84L23.1644 57H14.8444L8.28438 17.4V57H0.604375V0.999996H12.8444L19.3244 40.76ZM48.9656 57V0.999996H57.7656V22.04H61.9256C66.3523 22.04 69.6323 23.2133 71.7656 25.56C73.9523 27.9067 75.0456 31.3467 75.0456 35.88V43.16C75.0456 47.6933 73.9523 51.1333 71.7656 53.48C69.6323 55.8267 66.3523 57 61.9256 57H48.9656ZM61.9256 49C63.3123 49 64.379 48.6267 65.1256 47.88C65.8723 47.1333 66.2456 45.7467 66.2456 43.72V35.32C66.2456 33.2933 65.8723 31.9067 65.1256 31.16C64.379 30.4133 63.3123 30.04 61.9256 30.04H57.7656V49H61.9256ZM80.0856 57V0.999996H88.8856V57H80.0856ZM130.676 0.999996C135.102 0.999996 138.382 2.17333 140.516 4.52C142.702 6.86666 143.796 10.3067 143.796 14.84V22.12C143.796 26.6533 142.702 30.0933 140.516 32.44C138.382 34.7867 135.102 35.96 130.676 35.96H126.516V57H117.716V0.999996H130.676ZM126.516 9V27.96H130.676C132.062 27.96 133.129 27.5867 133.876 26.84C134.622 26.0933 134.996 24.7067 134.996 22.68V14.28C134.996 12.2533 134.622 10.8667 133.876 10.12C133.129 9.37333 132.062 9 130.676 9H126.516ZM181.352 57H172.472L170.952 46.84H160.152L158.632 57H150.552L159.512 0.999996H172.392L181.352 57ZM161.272 39.24H169.752L165.512 10.92L161.272 39.24ZM190.53 57V0.999996H215.17V9H199.33V23.32H204.45C208.877 23.32 212.183 24.4933 214.37 26.84C216.61 29.1867 217.73 32.6267 217.73 37.16V43.16C217.73 47.6933 216.61 51.1333 214.37 53.48C212.183 55.8267 208.877 57 204.45 57H190.53ZM204.45 49C205.837 49 206.93 48.6267 207.73 47.88C208.53 47.1333 208.93 45.7467 208.93 43.72V36.6C208.93 34.5733 208.53 33.1867 207.73 32.44C206.93 31.6933 205.837 31.32 204.45 31.32H199.33V49H204.45ZM236.733 44.12C236.733 46.1467 237.133 47.5867 237.933 48.44C238.786 49.24 239.906 49.64 241.293 49.64C242.68 49.64 243.773 49.24 244.573 48.44C245.426 47.5867 245.853 46.1467 245.853 44.12V13.88C245.853 11.8533 245.426 10.44 244.573 9.64C243.773 8.78666 242.68 8.36 241.293 8.36C239.906 8.36 238.786 8.78666 237.933 9.64C237.133 10.44 236.733 11.8533 236.733 13.88V44.12ZM227.933 14.44C227.933 9.90666 229.08 6.44 231.373 4.04C233.666 1.58666 236.973 0.36 241.293 0.36C245.613 0.36 248.92 1.58666 251.213 4.04C253.506 6.44 254.653 9.90666 254.653 14.44V43.56C254.653 48.0933 253.506 51.5867 251.213 54.04C248.92 56.44 245.613 57.64 241.293 57.64C236.973 57.64 233.666 56.44 231.373 54.04C229.08 51.5867 227.933 48.0933 227.933 43.56V14.44ZM262.812 0.999996H290.012V9H280.812V57H272.012V9H262.812V0.999996ZM327.368 57H318.488L316.968 46.84H306.168L304.648 57H296.568L305.528 0.999996H318.408L327.368 57ZM307.288 39.24H315.768L311.528 10.92L307.288 39.24ZM345.266 24.6H357.346V32.6H345.266V49H360.466V57H336.466V0.999996H360.466V9H345.266V24.6ZM389.559 40.76L395.559 0.999996H407.799V57H399.479V16.84L393.399 57H385.079L378.519 17.4V57H370.839V0.999996H383.079L389.559 40.76ZM449.902 0.999996C454.489 0.999996 457.795 2.06666 459.822 4.2C461.902 6.33333 462.942 9.56 462.942 13.88V15.88C462.942 18.76 462.489 21.1333 461.582 23C460.675 24.8667 459.235 26.2533 457.262 27.16C459.662 28.0667 461.342 29.56 462.302 31.64C463.315 33.6667 463.822 36.1733 463.822 39.16V43.72C463.822 48.04 462.702 51.3467 460.462 53.64C458.222 55.88 454.889 57 450.462 57H436.622V0.999996H449.902ZM445.422 31.8V49H450.462C451.955 49 453.075 48.6 453.822 47.8C454.622 47 455.022 45.56 455.022 43.48V38.6C455.022 35.9867 454.569 34.2 453.662 33.24C452.809 32.28 451.369 31.8 449.342 31.8H445.422ZM445.422 9V23.8H448.862C450.515 23.8 451.795 23.3733 452.702 22.52C453.662 21.6667 454.142 20.12 454.142 17.88V14.76C454.142 12.7333 453.769 11.2667 453.022 10.36C452.329 9.45333 451.209 9 449.662 9H445.422ZM503.064 34.68L500.344 39.8V57H491.544V0.999996H500.344V25.4L511.864 0.999996H520.664L508.424 25.96L520.664 57H511.624L503.064 34.68ZM537.749 44.12C537.749 46.1467 538.149 47.5867 538.949 48.44C539.802 49.24 540.922 49.64 542.309 49.64C543.695 49.64 544.789 49.24 545.589 48.44C546.442 47.5867 546.869 46.1467 546.869 44.12V13.88C546.869 11.8533 546.442 10.44 545.589 9.64C544.789 8.78666 543.695 8.36 542.309 8.36C540.922 8.36 539.802 8.78666 538.949 9.64C538.149 10.44 537.749 11.8533 537.749 13.88V44.12ZM528.949 14.44C528.949 9.90666 530.095 6.44 532.389 4.04C534.682 1.58666 537.989 0.36 542.309 0.36C546.629 0.36 549.935 1.58666 552.229 4.04C554.522 6.44 555.669 9.90666 555.669 14.44V43.56C555.669 48.0933 554.522 51.5867 552.229 54.04C549.935 56.44 546.629 57.64 542.309 57.64C537.989 57.64 534.682 56.44 532.389 54.04C530.095 51.5867 528.949 48.0933 528.949 43.56V14.44ZM585.028 40.76L591.028 0.999996H603.268V57H594.948V16.84L588.868 57H580.548L573.988 17.4V57H566.308V0.999996H578.548L585.028 40.76ZM623.469 57H614.669V0.999996H642.429V57H633.469V9H623.469V57ZM651.329 49.08C652.343 49.08 653.169 49.0267 653.809 48.92C654.503 48.8133 655.063 48.5733 655.489 48.2C655.916 47.7733 656.209 47.1867 656.369 46.44C656.583 45.64 656.716 44.6 656.769 43.32L658.209 0.999996H683.089V57H674.129V9H666.449L665.489 42.84C665.329 47.96 664.236 51.6133 662.209 53.8C660.236 55.9867 657.063 57.08 652.689 57.08H651.329V49.08ZM703.625 24.6H715.705V32.6H703.625V49H718.825V57H694.825V0.999996H718.825V9H703.625V24.6ZM740.798 34.68L738.078 39.8V57H729.278V0.999996H738.078V25.4L749.598 0.999996H758.398L746.158 25.96L758.398 57H749.358L740.798 34.68ZM792.923 36.12V43.56C792.923 48.0933 791.803 51.5867 789.563 54.04C787.376 56.44 784.123 57.64 779.803 57.64C775.483 57.64 772.203 56.44 769.963 54.04C767.776 51.5867 766.683 48.0933 766.683 43.56V14.44C766.683 9.90666 767.776 6.44 769.963 4.04C772.203 1.58666 775.483 0.36 779.803 0.36C784.123 0.36 787.376 1.58666 789.563 4.04C791.803 6.44 792.923 9.90666 792.923 14.44V19.88H784.603V13.88C784.603 11.8533 784.176 10.44 783.323 9.64C782.523 8.78666 781.43 8.36 780.043 8.36C778.656 8.36 777.536 8.78666 776.683 9.64C775.883 10.44 775.483 11.8533 775.483 13.88V44.12C775.483 46.1467 775.883 47.56 776.683 48.36C777.536 49.16 778.656 49.56 780.043 49.56C781.43 49.56 782.523 49.16 783.323 48.36C784.176 47.56 784.603 46.1467 784.603 44.12V36.12H792.923ZM812.063 24.6H824.143V32.6H812.063V49H827.263V57H803.263V0.999996H827.263V9H812.063V24.6Z" fill="url(#paint0_linear)"/>
<defs>
<linearGradient id="paint0_linear" x1="416" y1="-3" x2="416" y2="61" gradientUnits="userSpaceOnUse">
<stop stop-color="#60B6FF"/>
<stop offset="1" stop-color="#004E86" stop-opacity="0.8"/>
</linearGradient>
</defs>
</svg>
